<svg width="400" height="400" viewBox="0 0 400 400" xmlns="http://www.w3.org/2000/svg">
  <defs>
    <linearGradient id="grad1" x1="0%" y1="0%" x2="100%" y2="100%">
      <stop offset="0%" style="stop-color:rgb(26, 42, 108);stop-opacity:1" />
      <stop offset="50%" style="stop-color:rgb(178, 31, 31);stop-opacity:1" />
      <stop offset="100%" style="stop-color:rgb(253, 187, 45);stop-opacity:1" />
    </linearGradient>
  </defs>
  <g fill="url(#grad1)">
    <path d="M200,50 Q150,90 200,130 T200,210 Q250,170 200,130 T200,50"/>
    <path d="M200,50 Q250,90 200,130 T200,210 Q150,170 200,130 T200,50"/>
    <path d="M200,210 Q250,250 200,290 T200,370 Q150,330 200,290 T200,210"/>
    <path d="M200,210 Q150,250 200,290 T200,370 Q250,330 200,290 T200,210"/>
  </g>
</svg>